<svg width="291" height="296" viewBox="0 0 291 296" fill="none" xmlns="http://www.w3.org/2000/svg">
<path d="M0 100C0 44.7716 44.7715 0 100 0H191C246.228 0 291 44.7715 291 100V195.443C291 250.671 246.228 295.443 191 295.443H100C44.7715 295.443 0 250.671 0 195.443V100Z" fill="#FCD10C"/>
<g filter="url(#filter0_d_1859_18)">
<path d="M142.623 81.0802L109.303 74.4161C107.525 66.4192 102.639 54.794 100.418 49.981V46.6489H135.959C135.959 51.9802 132.997 56.2749 131.516 57.7558V62.1985H185.94C184.985 70.9267 182.019 77.8598 178.298 83.3016C168.826 92.1871 163.272 96.6298 158.173 99.9619L156.608 103.294L163.272 109.958H168.826L189.929 99.9619H252.127H276.562V156.977L252.127 148.832L221.028 141.057L202.601 148.832C227.036 222.137 187.051 237.586 169.28 243.241C149.732 249.46 128.555 245.832 120.409 243.241C67.9851 226.358 81.5358 172.157 91.5316 144.389H114.856C121.964 144.389 121.52 137.725 120.409 134.393L101.528 131.061L102.639 126.618L131.516 128.84C134.108 127.493 138.847 123.387 137.07 117.733L114.856 114.401V108.847L139.291 111.069C143.734 111.069 144.845 103.664 144.845 99.9619L114.856 93.2978V89.9657L135.959 92.1871C142.179 91.2985 142.993 84.4123 142.623 81.0802Z" fill="url(#paint0_linear_1859_18)"/>
</g>
<defs>
<filter id="filter0_d_1859_18" x="73.3921" y="41.8489" width="211.97" height="217.626" filterUnits="userSpaceOnUse" color-interpolation-filters="sRGB">
<feFlood flood-opacity="0" result="BackgroundImageFix"/>
<feColorMatrix in="SourceAlpha" type="matrix" values="0 0 0 0 0 0 0 0 0 0 0 0 0 0 0 0 0 0 127 0" result="hardAlpha"/>
<feOffset dy="4"/>
<feGaussianBlur stdDeviation="4.4"/>
<feComposite in2="hardAlpha" operator="out"/>
<feColorMatrix type="matrix" values="0 0 0 0 0 0 0 0 0 0 0 0 0 0 0 0 0 0 0.25 0"/>
<feBlend mode="normal" in2="BackgroundImageFix" result="effect1_dropShadow_1859_18"/>
<feBlend mode="normal" in="SourceGraphic" in2="effect1_dropShadow_1859_18" result="shape"/>
</filter>
<linearGradient id="paint0_linear_1859_18" x1="179.377" y1="46.6489" x2="179.377" y2="246.675" gradientUnits="userSpaceOnUse">
<stop/>
<stop offset="1" stop-color="#666666"/>
</linearGradient>
</defs>
</svg>
